<?xml version="1.0" encoding="UTF-8"?>
<svg width="1000" height="60" viewBox="0 0 1000 60" xmlns="http://www.w3.org/2000/svg">
  <path
    d="M 0.00 54.87 L 1.00 54.87 L 2.00 54.87 L 3.00 54.87 L 4.00 54.87 L 5.00 54.87 L 6.00 54.95 L 7.00 54.95 L 8.00 55.51 L 9.00 54.95 L 10.00 54.95 L 11.00 54.39 L 12.00 54.39 L 13.00 53.83 L 14.00 53.27 L 15.00 52.71 L 16.00 52.71 L 17.00 52.15 L 18.00 51.59 L 19.00 51.03 L 20.00 51.03 L 21.00 50.47 L 22.00 49.85 L 23.00 49.85 L 24.00 49.85 L 25.00 49.85 L 26.00 49.85 L 27.00 49.85 L 28.00 49.91 L 29.00 49.91 L 30.00 49.91 L 31.00 49.91 L 32.00 49.91 L 33.00 49.91 L 34.00 49.91 L 35.00 49.91 L 36.00 49.91 L 37.00 49.35 L 38.00 49.35 L 39.00 49.91 L 40.00 49.91 L 41.00 49.91 L 42.00 49.91 L 43.00 49.91 L 44.00 49.91 L 45.00 49.91 L 46.00 49.91 L 47.00 49.91 L 48.00 49.91 L 49.00 50.47 L 50.00 51.03 L 51.00 52.15 L 52.00 53.27 L 53.00 53.83 L 54.00 53.83 L 55.00 53.72 L 56.00 53.72 L 57.00 53.72 L 58.00 53.72 L 59.00 53.72 L 60.00 53.72 L 61.00 54.39 L 62.00 53.83 L 63.00 53.83 L 64.00 53.27 L 65.00 53.27 L 66.00 52.15 L 67.00 52.84 L 68.00 52.84 L 69.00 52.84 L 70.00 52.84 L 71.00 52.84 L 72.00 52.84 L 73.00 51.59 L 74.00 51.59 L 75.00 51.59 L 76.00 51.59 L 77.00 52.15 L 78.00 52.15 L 79.00 52.71 L 80.00 52.71 L 81.00 53.27 L 82.00 52.71 L 83.00 52.71 L 84.00 52.15 L 85.00 51.59 L 86.00 51.59 L 87.00 52.15 L 88.00 53.27 L 89.00 53.83 L 90.00 54.39 L 91.00 54.39 L 92.00 53.83 L 93.00 53.27 L 94.00 52.71 L 95.00 52.15 L 96.00 52.15 L 97.00 52.15 L 98.00 53.83 L 99.00 54.39 L 100.00 54.39 L 101.00 54.39 L 102.00 53.83 L 103.00 53.27 L 104.00 52.71 L 105.00 52.15 L 106.00 51.31 L 107.00 51.31 L 108.00 51.31 L 109.00 51.31 L 110.00 51.31 L 111.00 51.31 L 112.00 51.59 L 113.00 51.03 L 114.00 51.03 L 115.00 51.59 L 116.00 52.15 L 117.00 52.15 L 118.00 52.71 L 119.00 52.15 L 120.00 34.21 L 121.00 21.87 L 122.00 15.70 L 123.00 7.29 L 124.00 13.46 L 125.00 25.79 L 126.00 31.96 L 127.00 38.69 L 128.00 56.64 L 129.00 60.00 L 130.00 60.00 L 131.00 59.44 L 132.00 59.44 L 133.00 59.44 L 134.00 58.88 L 135.00 58.88 L 136.00 58.88 L 137.00 58.32 L 138.00 57.20 L 139.00 56.64 L 140.00 54.95 L 141.00 53.83 L 142.00 53.27 L 143.00 52.15 L 144.00 51.59 L 145.00 51.03 L 146.00 53.08 L 147.00 53.08 L 148.00 53.08 L 149.00 53.08 L 150.00 53.08 L 151.00 53.08 L 152.00 51.03 L 153.00 51.03 L 154.00 51.03 L 155.00 51.03 L 156.00 51.59 L 157.00 52.15 L 158.00 52.71 L 159.00 52.71 L 160.00 53.27 L 161.00 52.71 L 162.00 52.71 L 163.00 52.71 L 164.00 52.15 L 165.00 51.59 L 166.00 51.59 L 167.00 51.03 L 168.00 51.03 L 169.00 51.59 L 170.00 52.71 L 171.00 53.27 L 172.00 53.27 L 173.00 53.27 L 174.00 53.27 L 175.00 52.71 L 176.00 52.71 L 177.00 52.71 L 178.00 53.27 L 179.00 54.39 L 180.00 54.95 L 181.00 54.95 L 182.00 54.95 L 183.00 54.95 L 184.00 54.95 L 185.00 54.39 L 186.00 54.39 L 187.00 52.71 L 188.00 52.71 L 189.00 53.27 L 190.00 53.83 L 191.00 54.39 L 192.00 54.95 L 193.00 55.51 L 194.00 54.95 L 195.00 54.39 L 196.00 53.27 L 197.00 52.15 L 198.00 52.15 L 199.00 51.59 L 200.00 51.59 L 201.00 52.15 L 202.00 52.15 L 203.00 52.71 L 204.00 52.71 L 205.00 47.10 L 206.00 40.93 L 207.00 29.72 L 208.00 17.94 L 209.00 6.73 L 210.00 3.93 L 211.00 15.70 L 212.00 27.48 L 213.00 39.25 L 214.00 45.42 L 215.00 57.20 L 216.00 60.00 L 217.00 60.00 L 218.00 58.88 L 219.00 58.32 L 220.00 57.76 L 221.00 57.20 L 222.00 56.64 L 223.00 55.51 L 224.00 54.95 L 225.00 54.39 L 226.00 53.83 L 227.00 53.27 L 228.00 52.71 L 229.00 52.15 L 230.00 51.59 L 231.00 51.03 L 232.00 51.54 L 233.00 51.54 L 234.00 51.54 L 235.00 51.54 L 236.00 51.54 L 237.00 51.54 L 238.00 50.47 L 239.00 50.47 L 240.00 50.47 L 241.00 51.03 L 242.00 51.03 L 243.00 51.59 L 244.00 52.15 L 245.00 52.15 L 246.00 52.71 L 247.00 52.71 L 248.00 52.71 L 249.00 52.71 L 250.00 52.15 L 251.00 51.59 L 252.00 51.03 L 253.00 51.03 L 254.00 51.03 L 255.00 51.03 L 256.00 51.03 L 257.00 51.59 L 258.00 51.59 L 259.00 52.15 L 260.00 52.71 L 261.00 52.71 L 262.00 53.27 L 263.00 53.83 L 264.00 54.39 L 265.00 54.95 L 266.00 54.95 L 267.00 55.43 L 268.00 55.43 L 269.00 55.43 L 270.00 55.43 L 271.00 55.43 L 272.00 55.43 L 273.00 54.95 L 274.00 55.51 L 275.00 55.51 L 276.00 55.51 L 277.00 55.51 L 278.00 55.51 L 279.00 55.51 L 280.00 55.51 L 281.00 55.51 L 282.00 55.51 L 283.00 55.51 L 284.00 55.51 L 285.00 55.51 L 286.00 54.95 L 287.00 54.95 L 288.00 54.39 L 289.00 53.83 L 290.00 53.27 L 291.00 52.71 L 292.00 52.15 L 293.00 52.15 L 294.00 51.59 L 295.00 50.92 L 296.00 50.92 L 297.00 50.92 L 298.00 50.92 L 299.00 50.92 L 300.00 50.92 L 301.00 51.03 L 302.00 51.03 L 303.00 50.47 L 304.00 51.03 L 305.00 51.03 L 306.00 51.59 L 307.00 52.15 L 308.00 52.71 L 309.00 53.38 L 310.00 53.38 L 311.00 53.38 L 312.00 53.38 L 313.00 53.38 L 314.00 53.38 L 315.00 53.27 L 316.00 53.83 L 317.00 53.83 L 318.00 53.27 L 319.00 52.71 L 320.00 52.71 L 321.00 52.15 L 322.00 51.59 L 323.00 51.03 L 324.00 51.54 L 325.00 51.54 L 326.00 51.54 L 327.00 51.54 L 328.00 51.54 L 329.00 51.54 L 330.00 50.47 L 331.00 50.47 L 332.00 50.47 L 333.00 50.47 L 334.00 51.03 L 335.00 51.59 L 336.00 52.71 L 337.00 52.71 L 338.00 52.71 L 339.00 52.71 L 340.00 51.59 L 341.00 51.03 L 342.00 50.47 L 343.00 50.47 L 344.00 49.91 L 345.00 50.07 L 346.00 50.07 L 347.00 50.07 L 348.00 50.07 L 349.00 50.07 L 350.00 50.07 L 351.00 49.91 L 352.00 49.91 L 353.00 49.91 L 354.00 49.91 L 355.00 49.91 L 356.00 49.91 L 357.00 49.91 L 358.00 50.47 L 359.00 50.47 L 360.00 50.47 L 361.00 50.47 L 362.00 51.03 L 363.00 52.15 L 364.00 52.15 L 365.00 52.90 L 366.00 52.90 L 367.00 52.90 L 368.00 52.90 L 369.00 52.90 L 370.00 52.90 L 371.00 52.71 L 372.00 52.71 L 373.00 53.27 L 374.00 53.27 L 375.00 52.71 L 376.00 52.71 L 377.00 52.15 L 378.00 47.66 L 379.00 35.33 L 380.00 28.04 L 381.00 8.97 L 382.00 0.56 L 383.00 7.85 L 384.00 12.90 L 385.00 26.36 L 386.00 35.89 L 387.00 40.93 L 388.00 45.42 L 389.00 57.76 L 390.00 57.76 L 391.00 57.20 L 392.00 56.64 L 393.00 56.07 L 394.00 54.95 L 395.00 54.39 L 396.00 53.83 L 397.00 53.27 L 398.00 52.71 L 399.00 52.15 L 400.00 51.03 L 401.00 50.47 L 402.00 49.91 L 403.00 49.35 L 404.00 48.79 L 405.00 49.11 L 406.00 49.11 L 407.00 49.11 L 408.00 49.11 L 409.00 49.11 L 410.00 49.11 L 411.00 48.79 L 412.00 48.22 L 413.00 48.22 L 414.00 48.22 L 415.00 48.79 L 416.00 48.79 L 417.00 49.35 L 418.00 49.91 L 419.00 49.91 L 420.00 49.91 L 421.00 50.47 L 422.00 50.47 L 423.00 49.91 L 424.00 49.91 L 425.00 48.79 L 426.00 48.79 L 427.00 48.22 L 428.00 48.22 L 429.00 48.79 L 430.00 48.79 L 431.00 48.79 L 432.00 49.35 L 433.00 49.91 L 434.00 50.47 L 435.00 50.47 L 436.00 51.03 L 437.00 51.59 L 438.00 52.15 L 439.00 52.15 L 440.00 52.71 L 441.00 53.03 L 442.00 53.03 L 443.00 53.03 L 444.00 53.03 L 445.00 53.03 L 446.00 53.03 L 447.00 52.71 L 448.00 52.71 L 449.00 52.71 L 450.00 53.27 L 451.00 53.27 L 452.00 53.27 L 453.00 53.27 L 454.00 53.27 L 455.00 53.27 L 456.00 53.27 L 457.00 53.27 L 458.00 52.71 L 459.00 52.71 L 460.00 52.71 L 461.00 52.71 L 462.00 52.15 L 463.00 51.59 L 464.00 51.03 L 465.00 50.47 L 466.00 49.91 L 467.00 49.35 L 468.00 48.79 L 469.00 48.56 L 470.00 48.56 L 471.00 48.56 L 472.00 48.56 L 473.00 48.56 L 474.00 48.79 L 475.00 48.22 L 476.00 48.22 L 477.00 48.79 L 478.00 48.79 L 479.00 49.35 L 480.00 49.91 L 481.00 50.47 L 482.00 51.14 L 483.00 51.14 L 484.00 51.14 L 485.00 51.14 L 486.00 51.14 L 487.00 51.03 L 488.00 51.59 L 489.00 51.59 L 490.00 51.03 L 491.00 50.47 L 492.00 49.91 L 493.00 49.35 L 494.00 48.79 L 495.00 48.79 L 496.00 49.19 L 497.00 49.19 L 498.00 49.19 L 499.00 49.19 L 500.00 49.19 L 501.00 48.22 L 502.00 47.66 L 503.00 47.66 L 504.00 48.22 L 505.00 48.79 L 506.00 49.91 L 507.00 50.47 L 508.00 50.47 L 509.00 50.47 L 510.00 49.91 L 511.00 49.35 L 512.00 48.79 L 513.00 48.22 L 514.00 47.66 L 515.00 47.71 L 516.00 47.71 L 517.00 47.71 L 518.00 47.71 L 519.00 47.71 L 520.00 47.66 L 521.00 47.66 L 522.00 47.66 L 523.00 47.66 L 524.00 47.66 L 525.00 47.66 L 526.00 47.66 L 527.00 47.66 L 528.00 47.66 L 529.00 47.66 L 530.00 48.22 L 531.00 48.22 L 532.00 48.79 L 533.00 49.35 L 534.00 49.91 L 535.00 50.65 L 536.00 50.65 L 537.00 50.65 L 538.00 50.65 L 539.00 50.65 L 540.00 50.47 L 541.00 50.47 L 542.00 51.03 L 543.00 50.47 L 544.00 50.47 L 545.00 49.91 L 546.00 49.35 L 547.00 39.25 L 548.00 32.52 L 549.00 13.46 L 550.00 6.73 L 551.00 0.00 L 552.00 5.05 L 553.00 14.58 L 554.00 24.11 L 555.00 33.64 L 556.00 38.69 L 557.00 48.22 L 558.00 56.07 L 559.00 56.07 L 560.00 56.07 L 561.00 56.07 L 562.00 56.07 L 563.00 55.51 L 564.00 54.95 L 565.00 54.39 L 566.00 53.83 L 567.00 53.83 L 568.00 53.27 L 569.00 53.01 L 570.00 53.01 L 571.00 53.01 L 572.00 53.01 L 573.00 53.01 L 574.00 52.71 L 575.00 52.71 L 576.00 52.71 L 577.00 52.71 L 578.00 52.71 L 579.00 52.71 L 580.00 53.27 L 581.00 53.27 L 582.00 53.83 L 583.00 53.83 L 584.00 53.27 L 585.00 52.71 L 586.00 52.71 L 587.00 52.15 L 588.00 52.15 L 589.00 51.59 L 590.00 51.03 L 591.00 50.47 L 592.00 49.91 L 593.00 49.91 L 594.00 49.35 L 595.00 48.79 L 596.00 48.20 L 597.00 48.20 L 598.00 48.20 L 599.00 48.20 L 600.00 48.20 L 601.00 48.79 L 602.00 48.79 L 603.00 48.22 L 604.00 48.22 L 605.00 48.22 L 606.00 48.22 L 607.00 48.22 L 608.00 48.22 L 609.00 48.22 L 610.00 47.66 L 611.00 47.66 L 612.00 47.66 L 613.00 48.22 L 614.00 48.22 L 615.00 48.22 L 616.00 48.22 L 617.00 48.22 L 618.00 48.22 L 619.00 48.22 L 620.00 48.22 L 621.00 48.22 L 622.00 48.22 L 623.00 48.79 L 624.00 49.91 L 625.00 51.03 L 626.00 52.15 L 627.00 52.15 L 628.00 52.15 L 629.00 52.28 L 630.00 52.28 L 631.00 52.28 L 632.00 52.28 L 633.00 52.28 L 634.00 52.15 L 635.00 52.15 L 636.00 52.15 L 637.00 51.59 L 638.00 51.03 L 639.00 50.47 L 640.00 49.91 L 641.00 49.91 L 642.00 49.91 L 643.00 49.91 L 644.00 50.47 L 645.00 50.47 L 646.00 51.03 L 647.00 51.59 L 648.00 51.59 L 649.00 51.03 L 650.00 50.47 L 651.00 49.91 L 652.00 49.91 L 653.00 49.91 L 654.00 50.47 L 655.00 52.15 L 656.00 52.71 L 657.00 52.71 L 658.00 52.15 L 659.00 52.15 L 660.00 51.59 L 661.00 51.03 L 662.00 50.47 L 663.00 50.47 L 664.00 51.03 L 665.00 52.15 L 666.00 52.71 L 667.00 52.71 L 668.00 52.71 L 669.00 52.15 L 670.00 51.59 L 670.00 51.03 L 671.00 51.03 L 672.00 51.59 L 673.00 51.59 L 674.00 52.15 L 675.00 52.71 L 676.00 52.71 L 677.00 53.27 L 678.00 52.71 L 679.00 52.71 L 680.00 52.15 L 681.00 52.15 L 682.00 51.59 L 683.00 51.59 L 684.00 51.03 L 685.00 51.03 L 686.00 52.15 L 687.00 52.71 L 688.00 53.27 L 689.00 53.27 L 690.00 53.27 L 691.00 53.27 L 692.00 52.71 L 693.00 52.71 L 694.00 52.71 L 695.00 53.83 L 696.00 54.39 L 697.00 54.95 L 698.00 54.95 L 699.00 54.95 L 700.00 54.95 L 701.00 54.95 L 702.00 54.39 L 703.00 53.83 L 704.00 52.71 L 705.00 52.71 L 706.00 53.27 L 707.00 53.83 L 708.00 54.95 L 709.00 55.51 L 710.00 55.51 L 711.00 54.95 L 712.00 54.39 L 713.00 52.71 L 714.00 52.15 L 715.00 52.15 L 716.00 51.59 L 717.00 52.15 L 718.00 52.15 L 719.00 52.15 L 720.00 52.71 L 721.00 52.71 L 722.00 45.98 L 723.00 34.21 L 724.00 28.60 L 725.00 16.82 L 726.00 5.61 L 727.00 10.65 L 728.00 16.82 L 729.00 28.04 L 730.00 40.37 L 731.00 52.15 L 732.00 58.32 L 733.00 60.00 L 734.00 59.44 L 735.00 58.88 L 736.00 58.32 L 737.00 57.76 L 738.00 56.64 L 739.00 56.07 L 740.00 55.51 L 741.00 54.95 L 742.00 54.39 L 743.00 53.27 L 744.00 52.71 L 745.00 52.15 L 746.00 52.15 L 747.00 51.59 L 748.00 51.54 L 749.00 51.54 L 750.00 51.54 L 751.00 51.54 L 752.00 51.54 L 753.00 51.03 L 754.00 50.47 L 755.00 50.47 L 756.00 50.47 L 757.00 51.03 L 758.00 51.59 L 759.00 51.59 L 760.00 52.15 L 761.00 52.15 L 762.00 52.71 L 763.00 52.71 L 764.00 52.71 L 765.00 52.71 L 766.00 52.15 L 767.00 51.59 L 768.00 51.03 L 769.00 51.03 L 770.00 51.03 L 771.00 51.03 L 772.00 51.03 L 773.00 51.59 L 774.00 52.15 L 775.00 52.15 L 776.00 52.71 L 777.00 53.27 L 778.00 53.83 L 779.00 53.83 L 780.00 54.39 L 781.00 54.95 L 782.00 55.40 L 783.00 55.40 L 784.00 55.40 L 785.00 55.40 L 786.00 55.40 L 787.00 54.95 L 788.00 54.95 L 789.00 55.51 L 790.00 55.51 L 791.00 55.51 L 792.00 55.51 L 793.00 55.51 L 794.00 55.51 L 795.00 55.51 L 796.00 55.51 L 797.00 55.51 L 798.00 55.51 L 799.00 55.51 L 800.00 55.51 L 801.00 54.95 L 802.00 54.95 L 803.00 54.39 L 804.00 53.83 L 805.00 53.27 L 806.00 52.71 L 807.00 52.15 L 808.00 51.59 L 809.00 51.03 L 810.00 50.75 L 811.00 50.75 L 812.00 50.75 L 813.00 50.75 L 814.00 50.75 L 815.00 51.03 L 816.00 50.47 L 817.00 50.47 L 818.00 51.03 L 819.00 51.59 L 820.00 52.15 L 821.00 52.71 L 822.00 53.27 L 823.00 53.50 L 824.00 53.50 L 825.00 53.50 L 826.00 53.50 L 827.00 53.50 L 828.00 53.83 L 829.00 53.83 L 830.00 53.83 L 831.00 53.27 L 832.00 52.71 L 833.00 52.15 L 834.00 52.15 L 835.00 51.59 L 836.00 51.03 L 837.00 51.59 L 838.00 51.59 L 839.00 51.59 L 840.00 51.59 L 841.00 51.59 L 842.00 50.47 L 843.00 50.47 L 844.00 50.47 L 845.00 50.47 L 846.00 51.59 L 847.00 52.15 L 848.00 52.71 L 849.00 52.71 L 850.00 52.71 L 851.00 52.15 L 852.00 51.59 L 853.00 51.03 L 854.00 50.47 L 855.00 50.47 L 856.00 50.02 L 857.00 50.02 L 858.00 50.02 L 859.00 50.02 L 860.00 50.02 L 861.00 49.91 L 862.00 49.91 L 863.00 49.91 L 864.00 49.91 L 865.00 49.91 L 866.00 49.91 L 867.00 49.91 L 868.00 49.91 L 869.00 50.47 L 870.00 50.47 L 871.00 50.47 L 872.00 50.47 L 873.00 51.03 L 874.00 52.15 L 875.00 52.71 L 876.00 53.08 L 877.00 53.08 L 878.00 53.08 L 879.00 53.08 L 880.00 53.08 L 881.00 52.71 L 882.00 53.27 L 883.00 53.27 L 884.00 53.27 L 885.00 52.71 L 886.00 52.71 L 887.00 52.15 L 888.00 40.37 L 889.00 33.64 L 890.00 20.75 L 891.00 14.02 L 892.00 3.36 L 893.00 8.41 L 894.00 17.94 L 895.00 22.99 L 896.00 37.01 L 897.00 45.98 L 898.00 51.59 L 899.00 56.07 L 900.00 57.76 L 901.00 57.76 L 902.00 57.76 L 903.00 57.76 L 904.00 57.76 L 905.00 57.20 L 906.00 56.64 L 907.00 56.07 L 908.00 55.51 L 909.00 54.95 L 910.00 54.39 L 911.00 54.65 L 912.00 54.65 L 913.00 54.65 L 914.00 54.65 L 915.00 54.65 L 916.00 54.39 L 917.00 54.39 L 918.00 54.39 L 919.00 54.39 L 920.00 54.39 L 921.00 54.39 L 922.00 54.95 L 923.00 54.95 L 924.00 55.51 L 925.00 54.95 L 926.00 54.95 L 927.00 54.39 L 928.00 54.39 L 929.00 53.83 L 930.00 53.27 L 931.00 52.71 L 932.00 52.71 L 933.00 52.15 L 934.00 51.59 L 935.00 51.03 L 936.00 51.03 L 937.00 50.47 L 938.00 49.85 L 939.00 49.85 L 940.00 49.85 L 941.00 49.85 L 942.00 49.85 L 943.00 49.91 L 944.00 49.91 L 945.00 49.91 L 946.00 49.91 L 947.00 49.91 L 948.00 49.91 L 949.00 49.91 L 950.00 49.91 L 951.00 49.91 L 952.00 49.35 L 953.00 49.35 L 954.00 49.91 L 955.00 49.91 L 956.00 49.91 L 957.00 49.91 L 958.00 49.91 L 959.00 49.91 L 960.00 49.91 L 961.00 49.91 L 962.00 49.91 L 963.00 49.91 L 964.00 50.47 L 965.00 51.03 L 966.00 52.15 L 967.00 53.27 L 968.00 53.83 L 969.00 53.83 L 970.00 53.72 L 971.00 53.72 L 972.00 53.72 L 973.00 53.72 L 974.00 53.72 L 975.00 54.39 L 976.00 53.83 L 977.00 53.83 L 978.00 53.27 L 979.00 53.27 L 980.00 52.15 L 981.00 52.84 L 982.00 52.84 L 983.00 52.84 L 984.00 52.84 L 985.00 52.84 L 986.00 51.59 L 987.00 51.59 L 988.00 51.59 L 989.00 51.59 L 990.00 52.15 L 991.00 52.15 L 992.00 52.71 L 993.00 52.71 L 994.00 53.27 L 995.00 52.71 L 996.00 52.71 L 997.00 52.15 L 998.00 51.59 L 999.00 51.59 L 1000.00 52.15 L 1001.00 53.27 L 1002.00 53.83 L 1003.00 54.39 L 1004.00 54.39 L 1005.00 53.83 L 1006.00 53.27 L 1007.00 52.71 L 1008.00 52.15 L 1009.00 52.15 L 1010.00 52.15 L 1011.00 53.83 L 1012.00 54.39 L 1013.00 54.39 L 1014.00 54.39 L 1015.00 53.83 L 1016.00 53.27 L 1017.00 52.71 L 1018.00 52.15 L 1019.00 51.31 L 1020.00 51.31 L 1021.00 51.31 L 1022.00 51.31 L 1023.00 51.31 L 1024.00 51.59 L 1025.00 51.03 L 1026.00 51.03 L 1027.00 51.59 L 1028.00 52.15 L 1029.00 52.15 L 1030.00 52.71 L 1031.00 52.15 L 1032.00 34.21 L 1033.00 21.87 L 1034.00 15.70 L 1035.00 7.29 L 1036.00 13.46 L 1037.00 25.79 L 1038.00 31.96 L 1039.00 38.69 L 1040.00 56.64 L 1041.00 60.00 L 1042.00 60.00 L 1043.00 59.44 L 1044.00 59.44 L 1045.00 59.44 L 1046.00 58.88 L 1047.00 58.88 L 1048.00 58.88 L 1049.00 58.32 L 1050.00 57.20 L 1051.00 56.64 L 1052.00 54.95 L 1053.00 53.83 L 1054.00 53.27 L 1055.00 52.15 L 1056.00 51.59 L 1057.00 51.03 L 1058.00 53.08 L 1059.00 53.08 L 1060.00 53.08 L 1061.00 53.08 L 1062.00 53.08 L 1063.00 51.03 L 1064.00 51.03 L 1065.00 51.03 L 1066.00 51.03 L 1067.00 51.59 L 1068.00 52.15 L 1069.00 52.71 L 1070.00 52.71 L 1071.00 53.27 L 1072.00 52.71 L 1073.00 52.71 L 1074.00 52.71 L 1075.00 52.15 L 1076.00 51.59 L 1077.00 51.59 L 1078.00 51.03 L 1079.00 51.03 L 1080.00 51.59 L 1081.00 52.71 L 1082.00 53.27 L 1083.00 53.27 L 1084.00 53.27 L 1085.00 53.27 L 1086.00 52.71 L 1087.00 52.71 L 1088.00 52.71 L 1089.00 53.27 L 1090.00 54.39 L 1091.00 54.95 L 1092.00 54.95 L 1093.00 54.95 L 1094.00 54.95 L 1095.00 54.95 L 1096.00 54.39 L 1097.00 54.39 L 1098.00 52.71 L 1099.00 52.71 L 1100.00 53.27 L 1101.00 53.83 L 1102.00 54.39 L 1103.00 54.95 L 1104.00 55.51 L 1105.00 54.95 L 1106.00 54.39 L 1107.00 53.27 L 1108.00 52.15 L 1109.00 52.15 L 1110.00 51.59 L 1111.00 51.59 L 1112.00 52.15 L 1113.00 52.15 L 1114.00 52.71 L 1115.00 52.71 L 1116.00 47.10 L 1117.00 40.93 L 1118.00 29.72 L 1119.00 17.94 L 1120.00 6.73 L 1121.00 3.93 L 1122.00 15.70 L 1123.00 27.48 L 1124.00 39.25 L 1125.00 45.42 L 1126.00 57.20 L 1127.00 60.00 L 1128.00 60.00 L 1129.00 58.88 L 1130.00 58.32 L 1131.00 57.76 L 1132.00 57.20 L 1133.00 56.64 L 1134.00 55.51 L 1135.00 54.95 L 1136.00 54.39 L 1137.00 53.83 L 1138.00 53.27 L 1139.00 52.71 L 1140.00 52.15 L 1141.00 51.59 L 1142.00 51.03 L 1143.00 51.68 L 1144.00 51.68 L 1145.00 51.68 L 1146.00 51.68 L 1147.00 51.68 L 1148.00 50.47 L 1149.00 50.47 L 1150.00 50.47 L 1151.00 51.03 L 1152.00 51.03 L 1153.00 51.59 L 1154.00 52.15 L 1155.00 52.15 L 1156.00 52.71 L 1157.00 52.71 L 1158.00 52.71 L 1159.00 52.71"
    stroke="#00ff00"
    stroke-width="2"
    stroke-linecap="round"
    stroke-linejoin="round"
    fill="none"
  />
</svg>