<?xml version="1.0" encoding="UTF-8"?>
<svg width="1000" height="60" viewBox="0 0 1000 60" xmlns="http://www.w3.org/2000/svg">
  <path
    d="M 0.00 55.51 L 1.00 54.95 L 2.00 54.95 L 3.00 54.39 L 4.00 53.83 L 5.00 53.27 L 6.00 52.71 L 7.00 52.15 L 8.00 51.59 L 9.00 51.03 L 10.00 50.75 L 11.00 50.75 L 12.00 50.75 L 13.00 50.75 L 14.00 50.75 L 15.00 50.75 L 16.00 50.75 L 17.00 51.03 L 18.00 50.47 L 19.00 50.47 L 20.00 51.03 L 21.00 51.59 L 22.00 52.15 L 23.00 52.71 L 24.00 53.27 L 25.00 53.50 L 26.00 53.50 L 27.00 53.50 L 28.00 53.50 L 29.00 53.50 L 30.00 53.50 L 31.00 53.50 L 32.00 53.83 L 33.00 53.83 L 34.00 53.83 L 35.00 53.27 L 36.00 52.71 L 37.00 52.15 L 38.00 52.15 L 39.00 51.59 L 40.00 51.03 L 41.00 51.59 L 42.00 51.59 L 43.00 51.59 L 44.00 51.59 L 45.00 51.59 L 46.00 51.59 L 47.00 51.59 L 48.00 50.47 L 49.00 50.47 L 50.00 50.47 L 51.00 50.47 L 52.00 51.59 L 53.00 52.15 L 54.00 52.71 L 55.00 52.71 L 56.00 52.71 L 57.00 52.15 L 58.00 51.59 L 59.00 51.03 L 60.00 50.47 L 61.00 50.47 L 62.00 50.02 L 63.00 50.02 L 64.00 50.02 L 65.00 50.02 L 66.00 50.02 L 67.00 50.02 L 68.00 50.02 L 69.00 49.91 L 70.00 49.91 L 71.00 49.91 L 72.00 49.91 L 73.00 49.91 L 74.00 49.91 L 75.00 49.91 L 76.00 49.91 L 77.00 50.47 L 78.00 50.47 L 79.00 50.47 L 80.00 50.47 L 81.00 51.03 L 82.00 52.15 L 83.00 52.71 L 84.00 53.08 L 85.00 53.08 L 86.00 53.08 L 87.00 53.08 L 88.00 53.08 L 89.00 53.08 L 90.00 53.08 L 91.00 52.71 L 92.00 53.27 L 93.00 53.27 L 94.00 53.27 L 95.00 52.71 L 96.00 52.71 L 97.00 52.15 L 98.00 40.37 L 99.00 33.64 L 100.00 20.75 L 101.00 14.02 L 102.00 3.36 L 103.00 8.41 L 104.00 17.94 L 105.00 22.99 L 106.00 37.01 L 107.00 45.98 L 108.00 51.59 L 109.00 56.07 L 110.00 57.76 L 111.00 57.76 L 112.00 57.76 L 113.00 57.76 L 114.00 57.76 L 115.00 57.20 L 116.00 56.64 L 117.00 56.07 L 118.00 55.51 L 119.00 54.95 L 120.00 54.39 L 121.00 54.65 L 122.00 54.65 L 123.00 54.65 L 124.00 54.65 L 125.00 54.65 L 126.00 54.65 L 127.00 54.65 L 128.00 54.39 L 129.00 54.39 L 130.00 54.39 L 131.00 54.39 L 132.00 54.39 L 133.00 54.39 L 134.00 54.95 L 135.00 54.95 L 136.00 55.51 L 137.00 54.95 L 138.00 54.95 L 139.00 54.39 L 140.00 54.39 L 141.00 53.83 L 142.00 53.27 L 143.00 52.71 L 144.00 52.71 L 145.00 52.15 L 146.00 51.59 L 147.00 51.03 L 148.00 51.03 L 149.00 50.47 L 150.00 49.85 L 151.00 49.85 L 152.00 49.85 L 153.00 49.85 L 154.00 49.85 L 155.00 49.85 L 156.00 49.85 L 157.00 49.91 L 158.00 49.91 L 159.00 49.91 L 160.00 49.91 L 161.00 49.91 L 162.00 49.91 L 163.00 49.91 L 164.00 49.91 L 165.00 49.91 L 166.00 49.35 L 167.00 49.35 L 168.00 49.91 L 169.00 49.91 L 170.00 49.91 L 171.00 49.91 L 172.00 49.91 L 173.00 49.91 L 174.00 49.91 L 175.00 49.91 L 176.00 49.91 L 177.00 49.91 L 178.00 50.47 L 179.00 51.03 L 180.00 52.15 L 181.00 53.27 L 182.00 53.83 L 183.00 53.83 L 184.00 53.72 L 185.00 53.72 L 186.00 53.72 L 187.00 53.72 L 188.00 53.72 L 189.00 53.72 L 190.00 53.72 L 191.00 54.39 L 192.00 53.83 L 193.00 53.83 L 194.00 53.27 L 195.00 53.27 L 196.00 52.15 L 197.00 52.84 L 198.00 52.84 L 199.00 52.84 L 200.00 52.84 L 201.00 52.84 L 202.00 52.84 L 203.00 52.84 L 204.00 51.59 L 205.00 51.59 L 206.00 51.59 L 207.00 51.59 L 208.00 52.15 L 209.00 52.15 L 210.00 52.71 L 211.00 52.71 L 212.00 53.27 L 213.00 52.71 L 214.00 52.71 L 215.00 52.15 L 216.00 51.59 L 217.00 51.59 L 218.00 52.15 L 219.00 53.27 L 220.00 53.83 L 221.00 54.39 L 222.00 54.39 L 223.00 53.83 L 224.00 53.27 L 225.00 52.71 L 226.00 52.15 L 227.00 52.15 L 228.00 52.15 L 229.00 53.83 L 230.00 54.39 L 231.00 54.39 L 232.00 54.39 L 233.00 53.83 L 234.00 53.27 L 235.00 52.71 L 236.00 52.15 L 237.00 51.31 L 238.00 51.31 L 239.00 51.31 L 240.00 51.31 L 241.00 51.31 L 242.00 51.31 L 243.00 51.31 L 244.00 51.59 L 245.00 51.03 L 246.00 51.03 L 247.00 51.59 L 248.00 52.15 L 249.00 52.15 L 250.00 52.71 L 251.00 52.15 L 252.00 34.21 L 253.00 21.87 L 254.00 15.70 L 255.00 7.29 L 256.00 13.46 L 257.00 25.79 L 258.00 31.96 L 259.00 38.69 L 260.00 56.64 L 261.00 60.00 L 262.00 60.00 L 263.00 59.44 L 264.00 59.44 L 265.00 59.44 L 266.00 58.88 L 267.00 58.88 L 268.00 58.88 L 269.00 58.32 L 270.00 57.20 L 271.00 56.64 L 272.00 54.95 L 273.00 53.83 L 274.00 53.27 L 275.00 52.15 L 276.00 51.59 L 277.00 51.03 L 278.00 53.08 L 279.00 53.08 L 280.00 53.08 L 281.00 53.08 L 282.00 53.08 L 283.00 53.08 L 284.00 53.08 L 285.00 51.03 L 286.00 51.03 L 287.00 51.03 L 288.00 51.03 L 289.00 51.59 L 290.00 52.15 L 291.00 52.71 L 292.00 52.71 L 293.00 53.27 L 294.00 52.71 L 295.00 52.71 L 296.00 52.71 L 297.00 52.15 L 298.00 51.59 L 299.00 51.59 L 300.00 51.03 L 301.00 51.03 L 302.00 51.59 L 303.00 52.71 L 304.00 53.27 L 305.00 53.27 L 306.00 53.27 L 307.00 53.27 L 308.00 52.71 L 309.00 52.71 L 310.00 52.71 L 311.00 53.27 L 312.00 54.39 L 313.00 54.95 L 314.00 54.95 L 315.00 54.95 L 316.00 54.95 L 317.00 54.95 L 318.00 54.39 L 319.00 54.39 L 320.00 52.71 L 321.00 52.71 L 322.00 53.27 L 323.00 53.83 L 324.00 54.39 L 325.00 54.95 L 326.00 55.51 L 327.00 54.95 L 328.00 54.39 L 329.00 53.27 L 330.00 52.15 L 331.00 52.15 L 332.00 51.59 L 333.00 51.59 L 334.00 52.15 L 335.00 52.15 L 336.00 52.71 L 337.00 52.71 L 338.00 47.10 L 339.00 40.93 L 340.00 29.72 L 341.00 17.94 L 342.00 6.73 L 343.00 3.93 L 344.00 15.70 L 345.00 27.48 L 346.00 39.25 L 347.00 45.42 L 348.00 57.20 L 349.00 60.00 L 350.00 60.00 L 351.00 58.88 L 352.00 58.32 L 353.00 57.76 L 354.00 57.20 L 355.00 56.64 L 356.00 55.51 L 357.00 54.95 L 358.00 54.39 L 359.00 53.83 L 360.00 53.27 L 361.00 52.71 L 362.00 52.15 L 363.00 51.59 L 364.00 51.03 L 365.00 51.54 L 366.00 51.54 L 367.00 51.54 L 368.00 51.54 L 369.00 51.54 L 370.00 51.54 L 371.00 51.54 L 372.00 50.47 L 373.00 50.47 L 374.00 50.47 L 375.00 51.03 L 376.00 51.03 L 377.00 51.59 L 378.00 52.15 L 379.00 52.15 L 380.00 52.71 L 381.00 52.71 L 382.00 52.71 L 383.00 52.71 L 384.00 52.15 L 385.00 51.59 L 386.00 51.03 L 387.00 51.03 L 388.00 51.03 L 389.00 51.03 L 390.00 51.03 L 391.00 51.59 L 392.00 51.59 L 393.00 52.15 L 394.00 52.71 L 395.00 52.71 L 396.00 53.27 L 397.00 53.83 L 398.00 54.39 L 399.00 54.95 L 400.00 54.95 L 401.00 55.43 L 402.00 55.43 L 403.00 55.43 L 404.00 55.43 L 405.00 55.43 L 406.00 55.43 L 407.00 55.43 L 408.00 54.95 L 409.00 55.51 L 410.00 55.51 L 411.00 55.51 L 412.00 55.51 L 413.00 55.51 L 414.00 55.51 L 415.00 55.51 L 416.00 55.51 L 417.00 55.51 L 418.00 55.51 L 419.00 55.51 L 420.00 55.51 L 421.00 54.95 L 422.00 54.95 L 423.00 54.39 L 424.00 53.83 L 425.00 53.27 L 426.00 52.71 L 427.00 52.15 L 428.00 52.15 L 429.00 51.59 L 430.00 50.92 L 431.00 50.92 L 432.00 50.92 L 433.00 50.92 L 434.00 50.92 L 435.00 50.92 L 436.00 50.92 L 437.00 51.03 L 438.00 51.03 L 439.00 50.47 L 440.00 51.03 L 441.00 51.03 L 442.00 51.59 L 443.00 52.15 L 444.00 52.71 L 445.00 53.38 L 446.00 53.38 L 447.00 53.38 L 448.00 53.38 L 449.00 53.38 L 450.00 53.38 L 451.00 53.38 L 452.00 53.27 L 453.00 53.83 L 454.00 53.83 L 455.00 53.27 L 456.00 52.71 L 457.00 52.71 L 458.00 52.15 L 459.00 51.59 L 460.00 51.03 L 461.00 51.54 L 462.00 51.54 L 463.00 51.54 L 464.00 51.54 L 465.00 51.54 L 466.00 51.54 L 467.00 50.47 L 468.00 50.47 L 469.00 50.47 L 470.00 50.47 L 471.00 51.03 L 472.00 51.59 L 473.00 52.71 L 474.00 52.71 L 475.00 52.71 L 476.00 52.71 L 477.00 51.59 L 478.00 51.03 L 479.00 50.47 L 480.00 50.47 L 481.00 49.91 L 482.00 50.07 L 483.00 50.07 L 484.00 50.07 L 485.00 50.07 L 486.00 50.07 L 487.00 50.07 L 488.00 49.91 L 489.00 49.91 L 490.00 49.91 L 491.00 49.91 L 492.00 49.91 L 493.00 49.91 L 494.00 49.91 L 495.00 50.47 L 496.00 50.47 L 497.00 50.47 L 498.00 50.47 L 499.00 51.03 L 500.00 52.15 L 501.00 52.15 L 502.00 52.90 L 503.00 52.90 L 504.00 52.90 L 505.00 52.90 L 506.00 52.90 L 507.00 52.90 L 508.00 52.71 L 509.00 52.71 L 510.00 53.27 L 511.00 53.27 L 512.00 52.71 L 513.00 52.71 L 514.00 52.15 L 515.00 47.66 L 516.00 35.33 L 517.00 28.04 L 518.00 8.97 L 519.00 0.56 L 520.00 7.85 L 521.00 12.90 L 522.00 26.36 L 523.00 35.89 L 524.00 40.93 L 525.00 45.42 L 526.00 57.76 L 527.00 57.76 L 528.00 57.20 L 529.00 56.64 L 530.00 56.07 L 531.00 54.95 L 532.00 54.39 L 533.00 53.83 L 534.00 53.27 L 535.00 52.71 L 536.00 52.15 L 537.00 51.03 L 538.00 50.47 L 539.00 49.91 L 540.00 49.35 L 541.00 48.79 L 542.00 49.11 L 543.00 49.11 L 544.00 49.11 L 545.00 49.11 L 546.00 49.11 L 547.00 49.11 L 548.00 48.79 L 549.00 48.22 L 550.00 48.22 L 551.00 48.22 L 552.00 48.79 L 553.00 48.79 L 554.00 49.35 L 555.00 49.91 L 556.00 49.91 L 557.00 49.91 L 558.00 50.47 L 559.00 50.47 L 560.00 49.91 L 561.00 49.91 L 562.00 48.79 L 563.00 48.79 L 564.00 48.22 L 565.00 48.22 L 566.00 48.79 L 567.00 48.79 L 568.00 48.79 L 569.00 49.35 L 570.00 49.91 L 571.00 50.47 L 572.00 50.47 L 573.00 51.03 L 574.00 51.59 L 575.00 52.15 L 576.00 52.15 L 577.00 52.71 L 578.00 53.03 L 579.00 53.03 L 580.00 53.03 L 581.00 53.03 L 582.00 53.03 L 583.00 53.03 L 584.00 52.71 L 585.00 52.71 L 586.00 52.71 L 587.00 53.27 L 588.00 53.27 L 589.00 53.27 L 590.00 53.27 L 591.00 53.27 L 592.00 53.27 L 593.00 53.27 L 594.00 53.27 L 595.00 52.71 L 596.00 52.71 L 597.00 52.71 L 598.00 52.71 L 599.00 52.15 L 600.00 51.59 L 601.00 51.03 L 602.00 50.47 L 603.00 49.91 L 604.00 49.35 L 605.00 48.79 L 606.00 48.56 L 607.00 48.56 L 608.00 48.56 L 609.00 48.56 L 610.00 48.56 L 611.00 48.56 L 612.00 48.79 L 613.00 48.22 L 614.00 48.22 L 615.00 48.79 L 616.00 48.79 L 617.00 49.35 L 618.00 49.91 L 619.00 50.47 L 620.00 51.14 L 621.00 51.14 L 622.00 51.14 L 623.00 51.14 L 624.00 51.14 L 625.00 51.14 L 626.00 51.03 L 627.00 51.59 L 628.00 51.59 L 629.00 51.03 L 630.00 50.47 L 631.00 49.91 L 632.00 49.35 L 633.00 48.79 L 634.00 48.79 L 635.00 49.19 L 636.00 49.19 L 637.00 49.19 L 638.00 49.19 L 639.00 49.19 L 640.00 49.19 L 641.00 48.22 L 642.00 47.66 L 643.00 47.66 L 644.00 48.22 L 645.00 48.79 L 646.00 49.91 L 647.00 50.47 L 648.00 50.47 L 649.00 50.47 L 650.00 49.91 L 651.00 49.35 L 652.00 48.79 L 653.00 48.22 L 654.00 47.66 L 655.00 47.71 L 656.00 47.71 L 657.00 47.71 L 658.00 47.71 L 659.00 47.71 L 660.00 47.71 L 661.00 47.66 L 662.00 47.66 L 663.00 47.66 L 664.00 47.66 L 665.00 47.66 L 666.00 47.66 L 667.00 47.66 L 668.00 47.66 L 669.00 47.66 L 670.00 47.66 L 671.00 48.22 L 672.00 48.22 L 673.00 48.79 L 674.00 49.35 L 675.00 49.91 L 676.00 50.65 L 677.00 50.65 L 678.00 50.65 L 679.00 50.65 L 680.00 50.65 L 681.00 50.65 L 682.00 50.47 L 683.00 50.47 L 684.00 51.03 L 685.00 50.47 L 686.00 50.47 L 687.00 49.91 L 688.00 49.35 L 689.00 39.25 L 690.00 32.52 L 691.00 13.46 L 692.00 6.73 L 693.00 0.00 L 694.00 5.05 L 695.00 14.58 L 696.00 24.11 L 697.00 33.64 L 698.00 38.69 L 699.00 48.22 L 700.00 56.07 L 701.00 56.07 L 702.00 56.07 L 703.00 56.07 L 704.00 56.07 L 705.00 55.51 L 706.00 54.95 L 707.00 54.39 L 708.00 53.83 L 709.00 53.83 L 710.00 53.27 L 711.00 53.01 L 712.00 53.01 L 713.00 53.01 L 714.00 53.01 L 715.00 53.01 L 716.00 53.01 L 717.00 52.71 L 718.00 52.71 L 719.00 52.71 L 720.00 52.71 L 721.00 52.71 L 722.00 52.71 L 723.00 53.27 L 724.00 53.27 L 725.00 53.83 L 726.00 53.83 L 727.00 53.27 L 728.00 52.71 L 729.00 52.71 L 730.00 52.15 L 731.00 52.15 L 732.00 51.59 L 733.00 51.03 L 734.00 50.47 L 735.00 49.91 L 736.00 49.91 L 737.00 49.35 L 738.00 48.79 L 739.00 48.20 L 740.00 48.20 L 741.00 48.20 L 742.00 48.20 L 743.00 48.20 L 744.00 48.20 L 745.00 48.79 L 746.00 48.79 L 747.00 48.22 L 748.00 48.22 L 749.00 48.22 L 750.00 48.22 L 751.00 48.22 L 752.00 48.22 L 753.00 48.22 L 754.00 47.66 L 755.00 47.66 L 756.00 47.66 L 757.00 48.22 L 758.00 48.22 L 759.00 48.22 L 760.00 48.22 L 761.00 48.22 L 762.00 48.22 L 763.00 48.22 L 764.00 48.22 L 765.00 48.22 L 766.00 48.22 L 767.00 48.79 L 768.00 49.91 L 769.00 51.03 L 770.00 52.15 L 771.00 52.15 L 772.00 52.15 L 773.00 52.28 L 774.00 52.28 L 775.00 52.28 L 776.00 52.28 L 777.00 52.28 L 778.00 52.28 L 779.00 52.15 L 780.00 52.15 L 781.00 52.15 L 782.00 51.59 L 783.00 51.03 L 784.00 50.47 L 785.00 49.91 L 786.00 49.91 L 787.00 49.91 L 788.00 49.91 L 789.00 50.47 L 790.00 50.47 L 791.00 51.03 L 792.00 51.59 L 793.00 51.59 L 794.00 51.03 L 795.00 50.47 L 796.00 49.91 L 797.00 49.91 L 798.00 49.91 L 799.00 50.47 L 800.00 52.15 L 801.00 52.71 L 802.00 52.71 L 803.00 52.15 L 804.00 52.15 L 805.00 51.59 L 806.00 51.03 L 807.00 50.47 L 808.00 50.47 L 809.00 51.03 L 810.00 52.15 L 811.00 52.71 L 812.00 52.71 L 813.00 52.71 L 814.00 52.15 L 815.00 51.59 L 815.00 51.03 L 816.00 51.03 L 817.00 51.59 L 818.00 51.59 L 819.00 52.15 L 820.00 52.71 L 821.00 52.71 L 822.00 53.27 L 823.00 52.71 L 824.00 52.71 L 825.00 52.15 L 826.00 52.15 L 827.00 51.59 L 828.00 51.59 L 829.00 51.03 L 830.00 51.03 L 831.00 52.15 L 832.00 52.71 L 833.00 53.27 L 834.00 53.27 L 835.00 53.27 L 836.00 53.27 L 837.00 52.71 L 838.00 52.71 L 839.00 52.71 L 840.00 53.83 L 841.00 54.39 L 842.00 54.95 L 843.00 54.95 L 844.00 54.95 L 845.00 54.95 L 846.00 54.95 L 847.00 54.39 L 848.00 53.83 L 849.00 52.71 L 850.00 52.71 L 851.00 53.27 L 852.00 53.83 L 853.00 54.95 L 854.00 55.51 L 855.00 55.51 L 856.00 54.95 L 857.00 54.39 L 858.00 52.71 L 859.00 52.15 L 860.00 52.15 L 861.00 51.59 L 862.00 52.15 L 863.00 52.15 L 864.00 52.15 L 865.00 52.71 L 866.00 52.71 L 867.00 45.98 L 868.00 34.21 L 869.00 28.60 L 870.00 16.82 L 871.00 5.61 L 872.00 10.65 L 873.00 16.82 L 874.00 28.04 L 875.00 40.37 L 876.00 52.15 L 877.00 58.32 L 878.00 60.00 L 879.00 59.44 L 880.00 58.88 L 881.00 58.32 L 882.00 57.76 L 883.00 56.64 L 884.00 56.07 L 885.00 55.51 L 886.00 54.95 L 887.00 54.39 L 888.00 53.27 L 889.00 52.71 L 890.00 52.15 L 891.00 52.15 L 892.00 51.59 L 893.00 51.54 L 894.00 51.54 L 895.00 51.54 L 896.00 51.54 L 897.00 51.54 L 898.00 51.54 L 899.00 51.03 L 900.00 50.47 L 901.00 50.47 L 902.00 50.47 L 903.00 51.03 L 904.00 51.59 L 905.00 51.59 L 906.00 52.15 L 907.00 52.15 L 908.00 52.71 L 909.00 52.71 L 910.00 52.71 L 911.00 52.71 L 912.00 52.15 L 913.00 51.59 L 914.00 51.03 L 915.00 51.03 L 916.00 51.03 L 917.00 51.03 L 918.00 51.03 L 919.00 51.59 L 920.00 52.15 L 921.00 52.15 L 922.00 52.71 L 923.00 53.27 L 924.00 53.83 L 925.00 53.83 L 926.00 54.39 L 927.00 54.95 L 928.00 55.40 L 929.00 55.40 L 930.00 55.40 L 931.00 55.40 L 932.00 55.40 L 933.00 55.40 L 934.00 54.95 L 935.00 54.95 L 936.00 55.51 L 937.00 55.51 L 938.00 55.51 L 939.00 55.51 L 940.00 55.51 L 941.00 55.51 L 942.00 55.51 L 943.00 55.51 L 944.00 55.51 L 945.00 55.51 L 946.00 55.51 L 947.00 55.51 L 948.00 54.95 L 949.00 54.95 L 950.00 54.39 L 951.00 53.83 L 952.00 53.27 L 953.00 52.71 L 954.00 52.15 L 955.00 51.59 L 956.00 51.03 L 957.00 50.75 L 958.00 50.75 L 959.00 50.75 L 960.00 50.75 L 961.00 50.75 L 962.00 50.75 L 963.00 51.03 L 964.00 50.47 L 965.00 50.47 L 966.00 51.03 L 967.00 51.59 L 968.00 52.15 L 969.00 52.71 L 970.00 53.27 L 971.00 53.50 L 972.00 53.50 L 973.00 53.50 L 974.00 53.50 L 975.00 53.50 L 976.00 53.50 L 977.00 53.83 L 978.00 53.83 L 979.00 53.83 L 980.00 53.27 L 981.00 52.71 L 982.00 52.15 L 983.00 52.15 L 984.00 51.59 L 985.00 51.03 L 986.00 51.59 L 987.00 51.59 L 988.00 51.59 L 989.00 51.59 L 990.00 51.59 L 991.00 51.59 L 992.00 50.47 L 993.00 50.47 L 994.00 50.47 L 995.00 50.47 L 996.00 51.59 L 997.00 52.15 L 998.00 52.71 L 999.00 52.71 L 1000.00 52.71"
    stroke="#00ff00"
    stroke-width="2"
    stroke-linecap="round"
    stroke-linejoin="round"
    fill="none"
  />
</svg>