<?xml version="1.0" encoding="UTF-8"?>
<svg width="999" height="60" viewBox="0 0 999 60" xmlns="http://www.w3.org/2000/svg">
  <path
    d="M 0.00 15.56 L 1.00 20.00 L 2.00 26.67 L 3.00 33.33 L 4.00 37.78 L 5.00 44.44 L 6.00 44.44 L 7.00 42.22 L 8.00 42.22 L 9.00 35.56 L 10.00 35.56 L 11.00 35.56 L 12.00 35.56 L 13.00 31.11 L 14.00 24.44 L 15.00 17.78 L 16.00 11.11 L 17.00 13.33 L 18.00 15.56 L 19.00 22.22 L 20.00 33.33 L 21.00 35.56 L 22.00 35.56 L 23.00 37.78 L 24.00 42.22 L 25.00 46.67 L 26.00 46.67 L 27.00 44.44 L 28.00 44.44 L 29.00 42.22 L 30.00 40.00 L 31.00 35.56 L 32.00 28.89 L 33.00 22.22 L 34.00 20.00 L 35.00 17.78 L 36.00 17.78 L 37.00 24.44 L 38.00 28.89 L 39.00 31.11 L 40.00 31.11 L 41.00 31.11 L 42.00 31.11 L 43.00 31.11 L 44.00 33.33 L 45.00 37.78 L 46.00 44.44 L 47.00 46.67 L 48.00 44.44 L 49.00 40.00 L 50.00 35.56 L 51.00 28.89 L 52.00 26.67 L 53.00 24.44 L 54.00 24.44 L 55.00 22.22 L 56.00 15.56 L 57.00 15.56 L 58.00 22.22 L 59.00 24.44 L 60.00 28.89 L 61.00 31.11 L 62.00 28.89 L 63.00 26.67 L 64.00 28.89 L 65.00 31.11 L 66.00 33.33 L 67.00 33.33 L 68.00 33.33 L 69.00 33.33 L 70.00 33.33 L 71.00 26.67 L 72.00 24.44 L 73.00 26.67 L 74.00 28.89 L 75.00 28.89 L 76.00 26.67 L 77.00 22.22 L 79.00 24.44 L 80.00 28.89 L 81.00 31.11 L 85.00 33.33 L 86.00 35.56 L 87.00 37.78 L 88.00 42.22 L 89.00 40.00 L 90.00 40.00 L 92.00 37.78 L 93.00 31.11 L 94.00 26.67 L 95.00 26.67 L 96.00 24.44 L 97.00 20.00 L 98.00 17.78 L 99.00 17.78 L 100.00 17.78 L 101.00 20.00 L 104.00 22.22 L 105.00 22.22 L 106.00 24.44 L 107.00 31.11 L 108.00 42.22 L 109.00 44.44 L 110.00 44.44 L 111.00 40.00 L 112.00 37.78 L 113.00 37.78 L 114.00 40.00 L 115.00 40.00 L 116.00 35.56 L 118.00 31.11 L 119.00 31.11 L 120.00 26.67 L 121.00 22.22 L 122.00 17.78 L 124.00 20.00 L 125.00 22.22 L 126.00 22.22 L 127.00 26.67 L 128.00 33.33 L 129.00 33.33 L 130.00 33.33 L 131.00 33.33 L 132.00 37.78 L 133.00 40.00 L 134.00 40.00 L 135.00 37.78 L 136.00 37.78 L 137.00 33.33 L 138.00 33.33 L 139.00 31.11 L 140.00 26.67 L 141.00 26.67 L 142.00 26.67 L 143.00 26.67 L 144.00 28.89 L 145.00 26.67 L 146.00 22.22 L 147.00 20.00 L 148.00 20.00 L 149.00 20.00 L 150.00 20.00 L 151.00 22.22 L 152.00 24.44 L 153.00 28.89 L 154.00 31.11 L 155.00 31.11 L 156.00 33.33 L 157.00 37.78 L 158.00 35.56 L 159.00 33.33 L 160.00 31.11 L 161.00 26.67 L 162.00 24.44 L 163.00 28.89 L 164.00 35.56 L 165.00 37.78 L 166.00 40.00 L 167.00 42.22 L 168.00 40.00 L 169.00 35.56 L 170.00 28.89 L 171.00 20.00 L 172.00 11.11 L 173.00 11.11 L 174.00 13.33 L 175.00 11.11 L 176.00 13.33 L 177.00 17.78 L 178.00 22.22 L 179.00 24.44 L 180.00 26.67 L 181.00 31.11 L 182.00 33.33 L 183.00 33.33 L 184.00 35.56 L 185.00 44.44 L 186.00 51.11 L 187.00 53.33 L 188.00 55.56 L 189.00 51.11 L 190.00 40.00 L 191.00 28.89 L 192.00 20.00 L 193.00 13.33 L 194.00 11.11 L 195.00 15.56 L 196.00 22.22 L 197.00 26.67 L 198.00 37.78 L 199.00 40.00 L 200.00 37.78 L 201.00 33.33 L 202.00 31.11 L 203.00 28.89 L 204.00 26.67 L 205.00 28.89 L 206.00 26.67 L 207.00 26.67 L 208.00 31.11 L 209.00 33.33 L 210.00 33.33 L 211.00 28.89 L 212.00 24.44 L 214.00 24.44 L 215.00 26.67 L 216.00 33.33 L 217.00 44.44 L 218.00 57.78 L 219.00 60.00 L 220.00 55.56 L 221.00 46.67 L 222.00 33.33 L 223.00 20.00 L 224.00 17.78 L 225.00 17.78 L 226.00 17.78 L 227.00 15.56 L 228.00 15.56 L 231.00 20.00 L 232.00 22.22 L 233.00 26.67 L 234.00 33.33 L 235.00 42.22 L 236.00 46.67 L 237.00 51.11 L 238.00 53.33 L 239.00 53.33 L 240.00 46.67 L 241.00 37.78 L 242.00 31.11 L 243.00 28.89 L 244.00 24.44 L 245.00 15.56 L 246.00 15.56 L 247.00 13.33 L 248.00 8.89 L 249.00 4.44 L 250.00 6.67 L 251.00 11.11 L 252.00 24.44 L 253.00 26.67 L 254.00 24.44 L 255.00 24.44 L 256.00 31.11 L 257.00 42.22 L 258.00 51.11 L 259.00 53.33 L 260.00 46.67 L 261.00 44.44 L 262.00 44.44 L 263.00 40.00 L 264.00 35.56 L 265.00 31.11 L 266.00 24.44 L 267.00 20.00 L 268.00 20.00 L 269.00 20.00 L 270.00 17.78 L 271.00 22.22 L 272.00 24.44 L 273.00 24.44 L 275.00 22.22 L 276.00 22.22 L 277.00 26.67 L 278.00 31.11 L 279.00 40.00 L 280.00 40.00 L 282.00 37.78 L 284.00 35.56 L 285.00 33.33 L 286.00 28.89 L 287.00 26.67 L 288.00 24.44 L 289.00 26.67 L 290.00 31.11 L 291.00 31.11 L 292.00 26.67 L 293.00 24.44 L 294.00 22.22 L 295.00 17.78 L 296.00 20.00 L 297.00 22.22 L 298.00 26.67 L 299.00 31.11 L 300.00 31.11 L 301.00 31.11 L 302.00 31.11 L 303.00 31.11 L 304.00 33.33 L 305.00 40.00 L 306.00 37.78 L 307.00 35.56 L 308.00 37.78 L 309.00 37.78 L 310.00 35.56 L 311.00 33.33 L 312.00 31.11 L 313.00 31.11 L 314.00 20.00 L 315.00 13.33 L 316.00 17.78 L 317.00 24.44 L 318.00 35.56 L 319.00 35.56 L 320.00 35.56 L 321.00 33.33 L 322.00 28.89 L 323.00 28.89 L 324.00 28.89 L 325.00 28.89 L 326.00 31.11 L 327.00 31.11 L 328.00 26.67 L 329.00 26.67 L 330.00 24.44 L 331.00 24.44 L 332.00 22.22 L 333.00 20.00 L 334.00 22.22 L 335.00 24.44 L 336.00 31.11 L 337.00 33.33 L 338.00 37.78 L 339.00 37.78 L 340.00 35.56 L 341.00 35.56 L 342.00 35.56 L 343.00 33.33 L 344.00 31.11 L 345.00 26.67 L 346.00 24.44 L 347.00 22.22 L 348.00 20.00 L 349.00 20.00 L 350.00 20.00 L 351.00 22.22 L 352.00 26.67 L 353.00 26.67 L 354.00 24.44 L 355.00 20.00 L 356.00 20.00 L 357.00 22.22 L 358.00 28.89 L 359.00 31.11 L 360.00 33.33 L 361.00 35.56 L 362.00 35.56 L 363.00 35.56 L 364.00 35.56 L 365.00 40.00 L 366.00 42.22 L 367.00 40.00 L 368.00 40.00 L 369.00 37.78 L 370.00 33.33 L 371.00 28.89 L 372.00 26.67 L 373.00 24.44 L 374.00 22.22 L 375.00 15.56 L 376.00 11.11 L 377.00 8.89 L 378.00 8.89 L 379.00 11.11 L 380.00 17.78 L 381.00 24.44 L 382.00 33.33 L 383.00 42.22 L 384.00 44.44 L 385.00 46.67 L 386.00 48.89 L 387.00 44.44 L 388.00 40.00 L 389.00 37.78 L 390.00 33.33 L 391.00 28.89 L 392.00 22.22 L 393.00 20.00 L 394.00 17.78 L 396.00 17.78 L 397.00 20.00 L 398.00 24.44 L 399.00 26.67 L 400.00 28.89 L 401.00 28.89 L 402.00 31.11 L 403.00 35.56 L 404.00 35.56 L 405.00 33.33 L 406.00 33.33 L 407.00 31.11 L 408.00 28.89 L 409.00 26.67 L 410.00 24.44 L 411.00 22.22 L 413.00 22.22 L 414.00 22.22 L 415.00 26.67 L 416.00 28.89 L 417.00 33.33 L 418.00 37.78 L 419.00 37.78 L 420.00 35.56 L 421.00 33.33 L 422.00 33.33 L 423.00 31.11 L 424.00 24.44 L 425.00 20.00 L 426.00 15.56 L 428.00 13.33 L 429.00 11.11 L 430.00 11.11 L 431.00 15.56 L 432.00 24.44 L 433.00 33.33 L 434.00 35.56 L 435.00 35.56 L 436.00 37.78 L 437.00 35.56 L 438.00 33.33 L 441.00 31.11 L 442.00 28.89 L 443.00 22.22 L 444.00 17.78 L 445.00 17.78 L 446.00 17.78 L 447.00 15.56 L 448.00 17.78 L 449.00 24.44 L 450.00 31.11 L 451.00 37.78 L 452.00 37.78 L 453.00 40.00 L 454.00 40.00 L 455.00 33.33 L 456.00 31.11 L 457.00 26.67 L 458.00 26.67 L 459.00 26.67 L 460.00 24.44 L 461.00 24.44 L 462.00 24.44 L 463.00 26.67 L 464.00 26.67 L 465.00 24.44 L 466.00 24.44 L 467.00 28.89 L 468.00 35.56 L 469.00 35.56 L 470.00 33.33 L 471.00 28.89 L 472.00 31.11 L 473.00 33.33 L 474.00 33.33 L 475.00 33.33 L 476.00 28.89 L 477.00 22.22 L 478.00 20.00 L 479.00 17.78 L 480.00 11.11 L 481.00 13.33 L 482.00 17.78 L 483.00 22.22 L 484.00 24.44 L 485.00 28.89 L 486.00 33.33 L 487.00 37.78 L 488.00 40.00 L 489.00 37.78 L 490.00 35.56 L 491.00 33.33 L 492.00 33.33 L 493.00 33.33 L 494.00 33.33 L 495.00 33.33 L 496.00 24.44 L 497.00 17.78 L 498.00 15.56 L 500.00 15.56 L 501.00 15.56 L 502.00 17.78 L 503.00 22.22 L 504.00 28.89 L 505.00 33.33 L 506.00 37.78 L 507.00 37.78 L 508.00 37.78 L 509.00 37.78 L 510.00 35.56 L 511.00 33.33 L 512.00 33.33 L 513.00 35.56 L 514.00 33.33 L 515.00 31.11 L 516.00 26.67 L 517.00 22.22 L 518.00 17.78 L 519.00 15.56 L 520.00 13.33 L 521.00 13.33 L 522.00 13.33 L 523.00 17.78 L 524.00 20.00 L 525.00 24.44 L 526.00 26.67 L 527.00 28.89 L 528.00 28.89 L 529.00 31.11 L 530.00 37.78 L 531.00 40.00 L 532.00 37.78 L 534.00 33.33 L 535.00 26.67 L 536.00 22.22 L 537.00 17.78 L 538.00 17.78 L 539.00 15.56 L 540.00 17.78 L 541.00 17.78 L 542.00 22.22 L 543.00 26.67 L 544.00 28.89 L 545.00 28.89 L 546.00 24.44 L 547.00 20.00 L 548.00 17.78 L 549.00 24.44 L 550.00 31.11 L 551.00 37.78 L 552.00 44.44 L 553.00 44.44 L 554.00 40.00 L 555.00 37.78 L 556.00 28.89 L 557.00 24.44 L 558.00 20.00 L 559.00 17.78 L 560.00 22.22 L 561.00 31.11 L 562.00 35.56 L 564.00 37.78 L 565.00 31.11 L 566.00 26.67 L 567.00 22.22 L 568.00 13.33 L 569.00 13.33 L 570.00 17.78 L 571.00 20.00 L 572.00 22.22 L 573.00 24.44 L 574.00 26.67 L 575.00 26.67 L 576.00 26.67 L 577.00 31.11 L 578.00 33.33 L 579.00 35.56 L 580.00 35.56 L 581.00 35.56 L 582.00 35.56 L 583.00 35.56 L 584.00 33.33 L 585.00 31.11 L 586.00 31.11 L 587.00 26.67 L 588.00 24.44 L 589.00 20.00 L 590.00 17.78 L 591.00 15.56 L 592.00 17.78 L 593.00 17.78 L 594.00 22.22 L 595.00 31.11 L 596.00 37.78 L 597.00 42.22 L 598.00 44.44 L 599.00 42.22 L 600.00 42.22 L 601.00 42.22 L 602.00 37.78 L 603.00 28.89 L 604.00 26.67 L 605.00 26.67 L 606.00 22.22 L 607.00 15.56 L 608.00 8.89 L 609.00 4.44 L 610.00 4.44 L 611.00 6.67 L 612.00 13.33 L 613.00 20.00 L 614.00 28.89 L 615.00 37.78 L 616.00 42.22 L 617.00 44.44 L 618.00 42.22 L 619.00 42.22 L 620.00 44.44 L 621.00 42.22 L 622.00 35.56 L 623.00 28.89 L 624.00 28.89 L 625.00 28.89 L 626.00 22.22 L 627.00 11.11 L 628.00 4.44 L 629.00 4.44 L 630.00 4.44 L 631.00 4.44 L 632.00 8.89 L 633.00 17.78 L 634.00 26.67 L 635.00 40.00 L 636.00 48.89 L 637.00 48.89 L 638.00 44.44 L 639.00 44.44 L 640.00 44.44 L 641.00 46.67 L 642.00 44.44 L 643.00 35.56 L 644.00 31.11 L 645.00 24.44 L 646.00 17.78 L 647.00 13.33 L 648.00 11.11 L 649.00 11.11 L 650.00 13.33 L 651.00 11.11 L 652.00 11.11 L 653.00 13.33 L 654.00 17.78 L 655.00 24.44 L 656.00 28.89 L 657.00 31.11 L 658.00 33.33 L 659.00 40.00 L 660.00 46.67 L 661.00 46.67 L 662.00 44.44 L 663.00 37.78 L 664.00 31.11 L 665.00 26.67 L 666.00 22.22 L 667.00 22.22 L 668.00 22.22 L 669.00 22.22 L 670.00 24.44 L 671.00 20.00 L 672.00 17.78 L 673.00 15.56 L 674.00 15.56 L 675.00 15.56 L 676.00 26.67 L 677.00 37.78 L 678.00 42.22 L 679.00 46.67 L 680.00 44.44 L 681.00 40.00 L 682.00 33.33 L 683.00 31.11 L 684.00 24.44 L 685.00 17.78 L 686.00 17.78 L 687.00 17.78 L 688.00 22.22 L 689.00 24.44 L 690.00 31.11 L 691.00 28.89 L 692.00 24.44 L 693.00 17.78 L 694.00 20.00 L 695.00 22.22 L 696.00 28.89 L 697.00 28.89 L 698.00 31.11 L 699.00 31.11 L 700.00 35.56 L 701.00 37.78 L 702.00 35.56 L 703.00 28.89 L 704.00 26.67 L 705.00 22.22 L 706.00 17.78 L 707.00 17.78 L 708.00 17.78 L 709.00 24.44 L 710.00 28.89 L 711.00 28.89 L 712.00 26.67 L 713.00 24.44 L 714.00 24.44 L 715.00 24.44 L 716.00 26.67 L 717.00 28.89 L 718.00 31.11 L 719.00 31.11 L 720.00 31.11 L 721.00 33.33 L 722.00 33.33 L 723.00 35.56 L 724.00 35.56 L 725.00 35.56 L 726.00 33.33 L 727.00 26.67 L 728.00 20.00 L 729.00 20.00 L 730.00 26.67 L 731.00 31.11 L 732.00 28.89 L 733.00 26.67 L 734.00 24.44 L 735.00 24.44 L 736.00 22.22 L 737.00 22.22 L 738.00 20.00 L 739.00 20.00 L 740.00 22.22 L 741.00 24.44 L 742.00 24.44 L 743.00 24.44 L 744.00 26.67 L 745.00 26.67 L 746.00 26.67 L 747.00 28.89 L 748.00 26.67 L 749.00 26.67 L 750.00 31.11 L 751.00 31.11 L 752.00 31.11 L 753.00 31.11 L 755.00 33.33 L 756.00 31.11 L 757.00 28.89 L 758.00 26.67 L 759.00 26.67 L 760.00 28.89 L 762.00 28.89 L 763.00 26.67 L 764.00 28.89 L 765.00 31.11 L 766.00 28.89 L 767.00 24.44 L 768.00 20.00 L 769.00 15.56 L 770.00 20.00 L 771.00 24.44 L 772.00 31.11 L 773.00 37.78 L 774.00 40.00 L 775.00 35.56 L 776.00 31.11 L 778.00 28.89 L 779.00 26.67 L 780.00 24.44 L 781.00 22.22 L 782.00 22.22 L 783.00 22.22 L 784.00 26.67 L 786.00 26.67 L 787.00 24.44 L 789.00 24.44 L 790.00 24.44 L 791.00 26.67 L 792.00 28.89 L 793.00 33.33 L 794.00 35.56 L 795.00 33.33 L 796.00 28.89 L 797.00 26.67 L 798.00 24.44 L 799.00 24.44 L 800.00 22.22 L 802.00 24.44 L 803.00 26.67 L 804.00 28.89 L 805.00 28.89 L 806.00 28.89 L 807.00 28.89 L 808.00 28.89 L 809.00 31.11 L 810.00 33.33 L 811.00 35.56 L 812.00 40.00 L 813.00 40.00 L 814.00 37.78 L 815.00 31.11 L 816.00 24.44 L 817.00 15.56 L 818.00 13.33 L 819.00 11.11 L 821.00 15.56 L 822.00 17.78 L 823.00 22.22 L 824.00 24.44 L 825.00 31.11 L 826.00 31.11 L 827.00 31.11 L 828.00 33.33 L 829.00 37.78 L 832.00 35.56 L 833.00 33.33 L 834.00 31.11 L 836.00 26.67 L 837.00 22.22 L 838.00 15.56 L 839.00 15.56 L 840.00 17.78 L 841.00 20.00 L 842.00 20.00 L 843.00 22.22 L 844.00 31.11 L 845.00 35.56 L 846.00 35.56 L 847.00 31.11 L 848.00 26.67 L 849.00 22.22 L 850.00 17.78 L 851.00 17.78 L 852.00 22.22 L 853.00 20.00 L 854.00 17.78 L 855.00 13.33 L 856.00 15.56 L 857.00 13.33 L 858.00 15.56 L 859.00 24.44 L 860.00 31.11 L 861.00 35.56 L 862.00 44.44 L 863.00 46.67 L 864.00 48.89 L 865.00 51.11 L 866.00 46.67 L 867.00 42.22 L 868.00 35.56 L 869.00 31.11 L 870.00 26.67 L 871.00 20.00 L 872.00 15.56 L 873.00 11.11 L 874.00 4.44 L 875.00 2.22 L 876.00 0.00 L 877.00 2.22 L 878.00 6.67 L 879.00 17.78 L 880.00 31.11 L 881.00 37.78 L 882.00 42.22 L 883.00 40.00 L 884.00 42.22 L 885.00 40.00 L 886.00 37.78 L 887.00 31.11 L 888.00 26.67 L 889.00 26.67 L 891.00 28.89 L 892.00 26.67 L 893.00 24.44 L 894.00 20.00 L 895.00 15.56 L 896.00 13.33 L 898.00 15.56 L 899.00 22.22 L 900.00 22.22 L 901.00 20.00 L 902.00 24.44 L 903.00 28.89 L 904.00 33.33 L 906.00 35.56 L 907.00 35.56 L 908.00 33.33 L 909.00 28.89 L 911.00 26.67 L 912.00 26.67 L 913.00 26.67 L 914.00 28.89 L 915.00 26.67 L 916.00 22.22 L 917.00 22.22 L 920.00 20.00 L 921.00 20.00 L 922.00 20.00 L 923.00 20.00 L 924.00 24.44 L 925.00 26.67 L 926.00 28.89 L 927.00 31.11 L 928.00 33.33 L 929.00 31.11 L 930.00 31.11 L 933.00 31.11 L 934.00 33.33 L 935.00 35.56 L 936.00 33.33 L 937.00 28.89 L 938.00 22.22 L 940.00 17.78 L 944.00 24.44 L 945.00 26.67 L 946.00 26.67 L 947.00 28.89 L 948.00 31.11 L 949.00 33.33 L 950.00 28.89 L 951.00 24.44 L 952.00 22.22 L 953.00 24.44 L 954.00 31.11 L 955.00 37.78 L 956.00 40.00 L 957.00 37.78 L 958.00 33.33 L 959.00 26.67 L 960.00 20.00 L 961.00 17.78 L 964.00 15.56 L 965.00 15.56 L 966.00 11.11 L 967.00 8.89 L 968.00 8.89 L 969.00 11.11 L 970.00 13.33 L 971.00 17.78 L 972.00 20.00 L 973.00 26.67 L 974.00 35.56 L 975.00 42.22 L 976.00 46.67 L 977.00 46.67 L 978.00 46.67 L 979.00 42.22 L 980.00 35.56 L 981.00 31.11 L 982.00 24.44 L 983.00 22.22 L 984.00 17.78 L 985.00 11.11 L 986.00 8.89 L 987.00 4.44 L 988.00 4.44 L 989.00 4.44 L 990.00 8.89 L 991.00 8.89 L 992.00 13.33 L 993.00 26.67 L 994.00 37.78 L 995.00 44.44 L 996.00 44.44 L 997.00 44.44 L 998.00 42.22 L 999.00 35.56"
    stroke="#00ff00"
    stroke-width="2"
    stroke-linecap="round"
    stroke-linejoin="round"
    fill="none"
  />
</svg>